<svg width="97" height="42" viewBox="0 0 97 42" fill="none" xmlns="http://www.w3.org/2000/svg">
<g clip-path="url(#clip0_875_2825)">
<path d="M80.2156 42H0V14.033C0 6.28382 6.2891 0 14.0448 0H96.6792V25.5502C96.6792 34.6353 89.3083 42 80.2156 42Z" fill="#7CD4F2"/>
<path d="M13.2736 18.7266L6.52734 27.1532L13.464 35.4428L13.2736 18.7266Z" fill="#60A3BA"/>
<path d="M28.5122 10.6406L10.8867 28.7157L24.8934 33.9528L28.5122 10.6406Z" fill="#60A3BA"/>
<path d="M10.8858 32.8389L19.0605 37.566C19.3538 37.6269 19.9785 37.6041 20.2414 37.4595L29.1056 36.508C29.4027 36.3405 37.905 27.3467 37.9926 27.0156L38.5563 16.7506C38.7011 16.1835 38.4268 15.5898 37.9011 15.331L29.7188 10.5848C29.1055 10.2841 28.3627 10.5315 28.058 11.1443L23.1517 20.9906C22.8583 21.5805 22.1574 21.8356 21.5518 21.5805L14.497 18.5852C13.8456 18.3073 13.099 18.6308 12.8476 19.2893L9.9754 31.1871C9.70494 31.9026 10.1392 32.6867 10.8858 32.8427V32.8389Z" fill="#F4DC4D"/>
<path d="M22.4695 3.83984C12.8244 3.83984 5.00781 11.6537 5.00781 21.2869C5.00781 30.92 12.8282 38.7339 22.4695 38.7339C32.1108 38.7339 39.9312 30.92 39.9312 21.2869C39.9312 11.6537 32.1146 3.83984 22.4695 3.83984ZM22.4695 36.5074C14.0586 36.5074 7.23624 29.6945 7.23624 21.2869C7.23624 12.8793 14.0586 6.0702 22.4695 6.0702C30.8804 6.0702 37.7028 12.8831 37.7028 21.2907C37.7028 29.6983 30.8842 36.5112 22.4695 36.5112V36.5074Z" fill="#70C0D6"/>
<path d="M46.3667 6.73387V15.229H45.86V6.73387H42.6641V6.26953H49.5665V6.73387H46.3667Z" fill="white"/>
<path d="M56.9015 15.229V10.7341H51.2371V15.229H50.7305V6.26953H51.2371V10.2697H56.9015V6.26953H57.4081V15.229H56.9015Z" fill="white"/>
<path d="M59.4141 15.229V6.26953H64.1795V6.73387H59.9207V10.2887H63.4328V10.7531H59.9207V14.7685H64.1795V15.2328H59.4141V15.229Z" fill="white"/>
<path d="M58.9312 35.1545V24.8515C58.9312 24.4594 59.015 23.3671 59.0417 23.2567L58.4246 24.8515L53.9144 35.1545H51.8117L47.3015 24.8515C47.1339 24.4594 46.7682 23.4242 46.7149 23.2567C46.7149 23.3404 46.7987 24.4594 46.7987 24.8515V35.1545H43.8008V18.3545H47.4424L52.9925 30.6443L58.5122 18.3545H62.0434V35.1545H58.9312Z" fill="white"/>
<path d="M65.3773 35.379C64.3145 35.379 63.4727 34.5379 63.4727 33.476C63.4727 32.4141 64.3145 31.5996 65.3773 31.5996C66.4401 31.5996 67.2819 32.4408 67.2819 33.476C67.2819 34.5113 66.4401 35.379 65.3773 35.379Z" fill="white"/>
<path d="M75.9112 35.6304C70.7534 35.6304 66.7461 31.9081 66.7461 26.7547C66.7461 21.6012 70.7534 17.8789 75.9112 17.8789C81.0689 17.8789 84.9887 21.6012 84.9887 26.7547C84.9887 31.9081 81.0385 35.6304 75.9112 35.6304ZM75.9112 20.5964C72.5476 20.5964 70.3344 23.1161 70.3344 26.7547C70.3344 30.3933 72.5476 32.9129 75.9112 32.9129C79.2748 32.9129 81.4042 30.3933 81.4042 26.7547C81.4042 23.1161 79.2176 20.5964 75.9112 20.5964Z" fill="white"/>
<path d="M86.1156 35.379C85.049 35.379 84.2109 34.5379 84.2109 33.476C84.2109 32.4141 85.0528 31.5996 86.1156 31.5996C87.1784 31.5996 88.0202 32.4408 88.0202 33.476C88.0202 34.5113 87.1784 35.379 86.1156 35.379Z" fill="white"/>
</g>
<defs>
<clipPath id="clip0_875_2825">
<rect width="96.6792" height="42" fill="white"/>
</clipPath>
</defs>
</svg>
