<svg width="144" height="32" viewBox="0 0 144 32" fill="none" xmlns="http://www.w3.org/2000/svg">
<path d="M30.25 23.25H30.75V22.75V12.25V11.75H30.25L15.25 11.75L15.2493 11.75C15.0509 11.7503 14.854 11.7166 14.6671 11.6503L14 11.4138V12.1216V22C14 22.3315 14.1317 22.6495 14.3661 22.8839C14.6005 23.1183 14.9185 23.25 15.25 23.25H30.25ZM15.25 11.25H30.25C30.5152 11.25 30.7696 11.3554 30.9571 11.5429C31.1446 11.7304 31.25 11.9848 31.25 12.25V22.75C31.25 23.0152 31.1446 23.2696 30.9571 23.4571C30.7696 23.6446 30.5152 23.75 30.25 23.75H15.25C14.7859 23.75 14.3408 23.5656 14.0126 23.2374C13.6844 22.9092 13.5 22.4641 13.5 22V10C13.5 9.53587 13.6844 9.09075 14.0126 8.76256C14.3408 8.43437 14.7859 8.25 15.25 8.25H28C28.0663 8.25 28.1299 8.27634 28.1768 8.32322C28.2237 8.37011 28.25 8.43369 28.25 8.5C28.25 8.56631 28.2237 8.62989 28.1768 8.67678C28.1299 8.72366 28.0663 8.75 28 8.75H15.25C14.9185 8.75 14.6005 8.8817 14.3661 9.11612C14.1317 9.35054 14 9.66848 14 10C14 10.3315 14.1317 10.6495 14.3661 10.8839C14.6005 11.1183 14.9185 11.25 15.25 11.25ZM26.25 17.125C26.25 17.0014 26.2867 16.8806 26.3553 16.7778C26.424 16.675 26.5216 16.5949 26.6358 16.5476C26.75 16.5003 26.8757 16.4879 26.9969 16.512C27.1182 16.5361 27.2295 16.5956 27.3169 16.6831L27.6705 16.3295L27.3169 16.6831C27.4044 16.7705 27.4639 16.8818 27.488 17.0031C27.5121 17.1243 27.4997 17.25 27.4524 17.3642C27.4051 17.4784 27.325 17.576 27.2222 17.6447C27.1194 17.7133 26.9986 17.75 26.875 17.75C26.7092 17.75 26.5503 17.6842 26.4331 17.5669C26.3158 17.4497 26.25 17.2908 26.25 17.125Z" fill="white" stroke="white"/>
<path d="M46.1641 17.835H47.4766C47.4082 18.4639 47.2282 19.0267 46.9365 19.5234C46.6449 20.0202 46.2324 20.4144 45.6992 20.7061C45.166 20.9932 44.5007 21.1367 43.7031 21.1367C43.1198 21.1367 42.5889 21.0273 42.1104 20.8086C41.6364 20.5898 41.2285 20.2799 40.8867 19.8789C40.5449 19.4733 40.2806 18.988 40.0938 18.4229C39.9115 17.8532 39.8203 17.2197 39.8203 16.5225V15.5312C39.8203 14.834 39.9115 14.2028 40.0938 13.6377C40.2806 13.068 40.5472 12.5804 40.8936 12.1748C41.2445 11.7692 41.666 11.457 42.1582 11.2383C42.6504 11.0195 43.2041 10.9102 43.8193 10.9102C44.5713 10.9102 45.207 11.0514 45.7266 11.334C46.2461 11.6165 46.6494 12.0085 46.9365 12.5098C47.2282 13.0065 47.4082 13.583 47.4766 14.2393H46.1641C46.1003 13.7744 45.9818 13.3757 45.8086 13.043C45.6354 12.7057 45.3893 12.446 45.0703 12.2637C44.7513 12.0814 44.3343 11.9902 43.8193 11.9902C43.3773 11.9902 42.9876 12.0745 42.6504 12.2432C42.3177 12.4118 42.0374 12.651 41.8096 12.9609C41.5863 13.2708 41.4176 13.6423 41.3037 14.0752C41.1898 14.5081 41.1328 14.9889 41.1328 15.5176V16.5225C41.1328 17.0101 41.1829 17.4681 41.2832 17.8965C41.388 18.3249 41.5452 18.7008 41.7549 19.0244C41.9645 19.348 42.2311 19.6032 42.5547 19.79C42.8783 19.9723 43.2611 20.0635 43.7031 20.0635C44.2637 20.0635 44.7103 19.9746 45.043 19.7969C45.3757 19.6191 45.6263 19.3639 45.7949 19.0312C45.9681 18.6986 46.0911 18.2998 46.1641 17.835ZM48.748 17.3838V17.2266C48.748 16.6934 48.8255 16.1989 48.9805 15.7432C49.1354 15.2829 49.3587 14.8841 49.6504 14.5469C49.9421 14.2051 50.2952 13.9408 50.71 13.7539C51.1247 13.5625 51.5895 13.4668 52.1045 13.4668C52.624 13.4668 53.0911 13.5625 53.5059 13.7539C53.9251 13.9408 54.2806 14.2051 54.5723 14.5469C54.8685 14.8841 55.0941 15.2829 55.249 15.7432C55.404 16.1989 55.4814 16.6934 55.4814 17.2266V17.3838C55.4814 17.917 55.404 18.4115 55.249 18.8672C55.0941 19.3229 54.8685 19.7217 54.5723 20.0635C54.2806 20.4007 53.9274 20.665 53.5127 20.8564C53.1025 21.0433 52.6377 21.1367 52.1182 21.1367C51.5986 21.1367 51.1315 21.0433 50.7168 20.8564C50.3021 20.665 49.9466 20.4007 49.6504 20.0635C49.3587 19.7217 49.1354 19.3229 48.9805 18.8672C48.8255 18.4115 48.748 17.917 48.748 17.3838ZM50.0127 17.2266V17.3838C50.0127 17.7529 50.056 18.1016 50.1426 18.4297C50.2292 18.7533 50.359 19.0404 50.5322 19.291C50.71 19.5417 50.931 19.7399 51.1953 19.8857C51.4596 20.027 51.7673 20.0977 52.1182 20.0977C52.4645 20.0977 52.7676 20.027 53.0273 19.8857C53.2917 19.7399 53.5104 19.5417 53.6836 19.291C53.8568 19.0404 53.9867 18.7533 54.0732 18.4297C54.1644 18.1016 54.21 17.7529 54.21 17.3838V17.2266C54.21 16.862 54.1644 16.5179 54.0732 16.1943C53.9867 15.8662 53.8545 15.5768 53.6768 15.3262C53.5036 15.071 53.2848 14.8704 53.0205 14.7246C52.7607 14.5788 52.4554 14.5059 52.1045 14.5059C51.7581 14.5059 51.4528 14.5788 51.1885 14.7246C50.9287 14.8704 50.71 15.071 50.5322 15.3262C50.359 15.5768 50.2292 15.8662 50.1426 16.1943C50.056 16.5179 50.0127 16.862 50.0127 17.2266ZM58.332 15.1826V21H57.0674V13.6035H58.2637L58.332 15.1826ZM58.0312 17.0215L57.5049 17.001C57.5094 16.4951 57.5846 16.028 57.7305 15.5996C57.8763 15.1667 58.0814 14.7907 58.3457 14.4717C58.61 14.1527 58.9245 13.9066 59.2891 13.7334C59.6582 13.5557 60.0661 13.4668 60.5127 13.4668C60.8773 13.4668 61.2054 13.5169 61.4971 13.6172C61.7887 13.7129 62.0371 13.8678 62.2422 14.082C62.4518 14.2962 62.6113 14.5742 62.7207 14.916C62.8301 15.2533 62.8848 15.6657 62.8848 16.1533V21H61.6133V16.1396C61.6133 15.7523 61.5563 15.4424 61.4424 15.21C61.3285 14.973 61.1621 14.8021 60.9434 14.6973C60.7246 14.5879 60.4557 14.5332 60.1367 14.5332C59.8223 14.5332 59.5352 14.5993 59.2754 14.7314C59.0202 14.8636 58.7992 15.0459 58.6123 15.2783C58.43 15.5107 58.2865 15.7773 58.1816 16.0781C58.0814 16.3743 58.0312 16.6888 58.0312 17.0215ZM66.0703 15.1826V21H64.8057V13.6035H66.002L66.0703 15.1826ZM65.7695 17.0215L65.2432 17.001C65.2477 16.4951 65.3229 16.028 65.4688 15.5996C65.6146 15.1667 65.8197 14.7907 66.084 14.4717C66.3483 14.1527 66.6628 13.9066 67.0273 13.7334C67.3965 13.5557 67.8044 13.4668 68.251 13.4668C68.6156 13.4668 68.9437 13.5169 69.2354 13.6172C69.527 13.7129 69.7754 13.8678 69.9805 14.082C70.1901 14.2962 70.3496 14.5742 70.459 14.916C70.5684 15.2533 70.623 15.6657 70.623 16.1533V21H69.3516V16.1396C69.3516 15.7523 69.2946 15.4424 69.1807 15.21C69.0667 14.973 68.9004 14.8021 68.6816 14.6973C68.4629 14.5879 68.194 14.5332 67.875 14.5332C67.5605 14.5332 67.2734 14.5993 67.0137 14.7314C66.7585 14.8636 66.5374 15.0459 66.3506 15.2783C66.1683 15.5107 66.0247 15.7773 65.9199 16.0781C65.8197 16.3743 65.7695 16.6888 65.7695 17.0215ZM75.6133 21.1367C75.0983 21.1367 74.6312 21.0501 74.2119 20.877C73.7972 20.6992 73.4395 20.4508 73.1387 20.1318C72.8424 19.8128 72.6146 19.4346 72.4551 18.9971C72.2956 18.5596 72.2158 18.0811 72.2158 17.5615V17.2744C72.2158 16.6729 72.3047 16.1374 72.4824 15.668C72.6602 15.194 72.9017 14.793 73.207 14.4648C73.5124 14.1367 73.8587 13.8883 74.2461 13.7197C74.6335 13.5511 75.0345 13.4668 75.4492 13.4668C75.9779 13.4668 76.4336 13.5579 76.8164 13.7402C77.2038 13.9225 77.5205 14.1777 77.7666 14.5059C78.0127 14.8294 78.195 15.2122 78.3135 15.6543C78.432 16.0918 78.4912 16.5703 78.4912 17.0898V17.6572H72.9678V16.625H77.2266V16.5293C77.2083 16.2012 77.14 15.8822 77.0215 15.5723C76.9076 15.2624 76.7253 15.0072 76.4746 14.8066C76.224 14.6061 75.8822 14.5059 75.4492 14.5059C75.1621 14.5059 74.8978 14.5674 74.6562 14.6904C74.4147 14.8089 74.2074 14.9867 74.0342 15.2236C73.861 15.4606 73.7266 15.75 73.6309 16.0918C73.5352 16.4336 73.4873 16.8278 73.4873 17.2744V17.5615C73.4873 17.9124 73.5352 18.2428 73.6309 18.5527C73.7311 18.8581 73.8747 19.127 74.0615 19.3594C74.2529 19.5918 74.4831 19.7741 74.752 19.9062C75.0254 20.0384 75.3353 20.1045 75.6816 20.1045C76.1283 20.1045 76.5065 20.0133 76.8164 19.8311C77.1263 19.6488 77.3975 19.4049 77.6299 19.0996L78.3955 19.708C78.236 19.9495 78.0332 20.1797 77.7871 20.3984C77.541 20.6172 77.238 20.7949 76.8779 20.9316C76.5225 21.0684 76.1009 21.1367 75.6133 21.1367ZM82.9277 20.0977C83.2285 20.0977 83.5065 20.0361 83.7617 19.9131C84.0169 19.79 84.2266 19.6214 84.3906 19.4072C84.5547 19.1885 84.6481 18.9401 84.6709 18.6621H85.874C85.8512 19.0996 85.7031 19.5075 85.4297 19.8857C85.1608 20.2594 84.8076 20.5625 84.3701 20.7949C83.9326 21.0228 83.4518 21.1367 82.9277 21.1367C82.3717 21.1367 81.8864 21.0387 81.4717 20.8428C81.0615 20.6468 80.7197 20.3779 80.4463 20.0361C80.1774 19.6943 79.9746 19.3024 79.8379 18.8604C79.7057 18.4137 79.6396 17.9421 79.6396 17.4453V17.1582C79.6396 16.6615 79.7057 16.1921 79.8379 15.75C79.9746 15.3034 80.1774 14.9092 80.4463 14.5674C80.7197 14.2256 81.0615 13.9567 81.4717 13.7607C81.8864 13.5648 82.3717 13.4668 82.9277 13.4668C83.5065 13.4668 84.0124 13.5853 84.4453 13.8223C84.8783 14.0547 85.2178 14.3737 85.4639 14.7793C85.7145 15.1803 85.8512 15.6361 85.874 16.1465H84.6709C84.6481 15.8411 84.5615 15.5654 84.4111 15.3193C84.2653 15.0732 84.0648 14.8773 83.8096 14.7314C83.5589 14.5811 83.265 14.5059 82.9277 14.5059C82.5404 14.5059 82.2145 14.5833 81.9502 14.7383C81.6904 14.8887 81.4831 15.0938 81.3281 15.3535C81.1777 15.6087 81.0684 15.8936 81 16.208C80.9362 16.5179 80.9043 16.8346 80.9043 17.1582V17.4453C80.9043 17.7689 80.9362 18.0879 81 18.4023C81.0638 18.7168 81.1709 19.0016 81.3213 19.2568C81.4762 19.512 81.6836 19.7171 81.9434 19.8721C82.2077 20.0225 82.5358 20.0977 82.9277 20.0977ZM90.3926 13.6035V14.5742H86.3936V13.6035H90.3926ZM87.7471 11.8057H89.0117V19.168C89.0117 19.4186 89.0505 19.6077 89.1279 19.7354C89.2054 19.863 89.3057 19.9473 89.4287 19.9883C89.5518 20.0293 89.6839 20.0498 89.8252 20.0498C89.93 20.0498 90.0394 20.0407 90.1533 20.0225C90.2718 19.9997 90.3607 19.9814 90.4199 19.9678L90.4268 21C90.3265 21.0319 90.1943 21.0615 90.0303 21.0889C89.8708 21.1208 89.6771 21.1367 89.4492 21.1367C89.1393 21.1367 88.8545 21.0752 88.5947 20.9521C88.335 20.8291 88.1276 20.624 87.9727 20.3369C87.8223 20.0452 87.7471 19.6533 87.7471 19.1611V11.8057ZM98.1582 17.9922L100.134 11.0469H101.091L100.537 13.7471L98.4111 21H97.4609L98.1582 17.9922ZM96.1143 11.0469L97.6865 17.8555L98.1582 21H97.2148L94.8018 11.0469H96.1143ZM103.647 17.8486L105.186 11.0469H106.505L104.099 21H103.155L103.647 17.8486ZM101.234 11.0469L103.155 17.9922L103.853 21H102.902L100.852 13.7471L100.291 11.0469H101.234ZM111.905 19.7354V15.9277C111.905 15.6361 111.846 15.3831 111.728 15.1689C111.614 14.9502 111.44 14.7816 111.208 14.6631C110.976 14.5446 110.688 14.4854 110.347 14.4854C110.028 14.4854 109.747 14.54 109.506 14.6494C109.269 14.7588 109.082 14.9023 108.945 15.0801C108.813 15.2578 108.747 15.4492 108.747 15.6543H107.482C107.482 15.39 107.551 15.1279 107.688 14.8682C107.824 14.6084 108.02 14.3737 108.275 14.1641C108.535 13.9499 108.845 13.7812 109.205 13.6582C109.57 13.5306 109.975 13.4668 110.422 13.4668C110.96 13.4668 111.434 13.5579 111.844 13.7402C112.258 13.9225 112.582 14.1982 112.814 14.5674C113.051 14.932 113.17 15.39 113.17 15.9414V19.3867C113.17 19.6328 113.19 19.8949 113.231 20.1729C113.277 20.4508 113.343 20.6901 113.43 20.8906V21H112.11C112.047 20.8542 111.996 20.6605 111.96 20.4189C111.924 20.1729 111.905 19.945 111.905 19.7354ZM112.124 16.5156L112.138 17.4043H110.859C110.499 17.4043 110.178 17.4339 109.896 17.4932C109.613 17.5479 109.376 17.6322 109.185 17.7461C108.993 17.86 108.847 18.0036 108.747 18.1768C108.647 18.3454 108.597 18.5436 108.597 18.7715C108.597 19.0039 108.649 19.2158 108.754 19.4072C108.859 19.5986 109.016 19.7513 109.226 19.8652C109.44 19.9746 109.702 20.0293 110.012 20.0293C110.399 20.0293 110.741 19.9473 111.037 19.7832C111.333 19.6191 111.568 19.4186 111.741 19.1816C111.919 18.9447 112.015 18.7145 112.028 18.4912L112.568 19.0996C112.536 19.291 112.45 19.5029 112.309 19.7354C112.167 19.9678 111.978 20.1911 111.741 20.4053C111.509 20.6149 111.231 20.7904 110.907 20.9316C110.588 21.0684 110.228 21.1367 109.827 21.1367C109.326 21.1367 108.886 21.0387 108.508 20.8428C108.134 20.6468 107.842 20.3848 107.633 20.0566C107.428 19.724 107.325 19.3525 107.325 18.9424C107.325 18.5459 107.403 18.1973 107.558 17.8965C107.713 17.5911 107.936 17.3382 108.228 17.1377C108.519 16.9326 108.87 16.7777 109.28 16.6729C109.69 16.568 110.148 16.5156 110.654 16.5156H112.124ZM116.533 10.5V21H115.262V10.5H116.533ZM119.938 10.5V21H118.666V10.5H119.938ZM125.037 21.1367C124.522 21.1367 124.055 21.0501 123.636 20.877C123.221 20.6992 122.863 20.4508 122.562 20.1318C122.266 19.8128 122.038 19.4346 121.879 18.9971C121.719 18.5596 121.64 18.0811 121.64 17.5615V17.2744C121.64 16.6729 121.729 16.1374 121.906 15.668C122.084 15.194 122.326 14.793 122.631 14.4648C122.936 14.1367 123.283 13.8883 123.67 13.7197C124.057 13.5511 124.458 13.4668 124.873 13.4668C125.402 13.4668 125.857 13.5579 126.24 13.7402C126.628 13.9225 126.944 14.1777 127.19 14.5059C127.437 14.8294 127.619 15.2122 127.737 15.6543C127.856 16.0918 127.915 16.5703 127.915 17.0898V17.6572H122.392V16.625H126.65V16.5293C126.632 16.2012 126.564 15.8822 126.445 15.5723C126.331 15.2624 126.149 15.0072 125.898 14.8066C125.648 14.6061 125.306 14.5059 124.873 14.5059C124.586 14.5059 124.322 14.5674 124.08 14.6904C123.839 14.8089 123.631 14.9867 123.458 15.2236C123.285 15.4606 123.15 15.75 123.055 16.0918C122.959 16.4336 122.911 16.8278 122.911 17.2744V17.5615C122.911 17.9124 122.959 18.2428 123.055 18.5527C123.155 18.8581 123.299 19.127 123.485 19.3594C123.677 19.5918 123.907 19.7741 124.176 19.9062C124.449 20.0384 124.759 20.1045 125.105 20.1045C125.552 20.1045 125.93 20.0133 126.24 19.8311C126.55 19.6488 126.821 19.4049 127.054 19.0996L127.819 19.708C127.66 19.9495 127.457 20.1797 127.211 20.3984C126.965 20.6172 126.662 20.7949 126.302 20.9316C125.946 21.0684 125.525 21.1367 125.037 21.1367ZM132.488 13.6035V14.5742H128.489V13.6035H132.488ZM129.843 11.8057H131.107V19.168C131.107 19.4186 131.146 19.6077 131.224 19.7354C131.301 19.863 131.401 19.9473 131.524 19.9883C131.647 20.0293 131.78 20.0498 131.921 20.0498C132.026 20.0498 132.135 20.0407 132.249 20.0225C132.368 19.9997 132.456 19.9814 132.516 19.9678L132.522 21C132.422 21.0319 132.29 21.0615 132.126 21.0889C131.966 21.1208 131.773 21.1367 131.545 21.1367C131.235 21.1367 130.95 21.0752 130.69 20.9521C130.431 20.8291 130.223 20.624 130.068 20.3369C129.918 20.0452 129.843 19.6533 129.843 19.1611V11.8057Z" fill="white"/>
<rect x="0.5" y="0.5" width="143" height="31" rx="4.5" stroke="white"/>
</svg>
